<svg xmlns:dc="http://purl.org/dc/elements/1.1/" xmlns:cc="http://creativecommons.org/ns#" xmlns:rdf="http://www.w3.org/1999/02/22-rdf-syntax-ns#" xmlns:svg="http://www.w3.org/2000/svg" xmlns="http://www.w3.org/2000/svg" id="svg8" version="1.1" viewBox="0 0 142.62 103.72">
  <defs id="defs2"/>
  <metadata id="metadata5">
    <rdf:RDF>
      <cc:Work rdf:about="">
        <dc:format>
          image/svg+xml
        </dc:format>
        <dc:type rdf:resource="http://purl.org/dc/dcmitype/StillImage"/>
      </cc:Work>
    </rdf:RDF>
  </metadata>
  <path id="path35" d="m112.71 98.45c-2.9-2.9-5.27-5.31-5.27-5.36 0-0.05 2.4-2.49 5.33-5.42l5.33-5.33 5.29 5.29c2.91 2.91 5.29 5.35 5.29 5.42 0 0.14-10.49 10.67-10.63 10.67-0.04 0-2.45-2.37-5.35-5.27zM16.28 75.59 0 59.31 16.3 43.01 32.6 26.71 48.85 42.97c8.94 8.94 16.26 16.29 16.26 16.34 0 0.08-32.43 32.55-32.51 32.55-0.02 0-7.37-7.32-16.32-16.28zm67.1-6.48c-10.84-10.84-19.71-19.74-19.71-19.79 0-0.11 39.39-39.5 39.5-39.5 0.14 0 39.41 39.32 39.41 39.45 0 0.11-39.34 39.54-39.45 39.54-0.02 0-8.91-8.87-19.75-19.71zM48.15 33.8c-6.14-6.14-11.15-11.21-11.15-11.28 0-0.07 5.04-5.17 11.2-11.32L59.39 0 70.59 11.2c6.16 6.16 11.2 11.25 11.2 11.32 0 0.14-22.26 22.44-22.39 22.44-0.05 0-5.1-5.02-11.24-11.15z" style="fill:#dbe4ae;stroke-width:0.08"/>
  <path id="path33" d="m112.8 98.36c-2.85-2.85-5.19-5.22-5.19-5.27 0-0.05 2.36-2.45 5.25-5.33l5.25-5.25 5.27 5.27 5.27 5.27-5.25 5.25c-2.89 2.89-5.29 5.25-5.33 5.25-0.05 0-2.42-2.33-5.27-5.19zM16.28 75.59 0 59.31 16.3 43.01 32.6 26.71 48.85 42.97c8.94 8.94 16.26 16.29 16.26 16.34 0 0.08-32.43 32.55-32.51 32.55-0.02 0-7.37-7.32-16.32-16.28zm67.1-6.56C72.58 58.23 63.75 49.36 63.75 49.32c0-0.11 39.3-39.41 39.41-39.41 0.05 0 8.94 8.86 19.77 19.69l19.68 19.69-19.68 19.68c-10.83 10.83-19.74 19.68-19.81 19.68-0.07 0-8.96-8.83-19.75-19.62zM48.15 33.8c-6.14-6.14-11.15-11.21-11.15-11.28 0-0.07 5.04-5.17 11.2-11.32L59.39 0 70.59 11.2c6.16 6.16 11.2 11.25 11.2 11.32 0 0.14-22.26 22.44-22.39 22.44-0.05 0-5.1-5.02-11.24-11.15z" style="fill:#95d3f4;stroke-width:0.08"/>
  <path id="path31" d="m112.8 98.36c-2.85-2.85-5.19-5.22-5.19-5.27 0-0.05 2.36-2.45 5.25-5.33l5.25-5.25 5.27 5.27 5.27 5.27-5.25 5.25c-2.89 2.89-5.29 5.25-5.33 5.25-0.05 0-2.42-2.33-5.27-5.19zM16.4 75.54C7.52 66.66 0.25 59.36 0.25 59.31c0-0.05 7.28-7.36 16.17-16.26L32.6 26.88 48.77 43.05c8.89 8.89 16.17 16.21 16.17 16.26 0 0.08-32.26 32.39-32.34 32.39-0.02 0-7.31-7.27-16.19-16.15zm66.97-6.52C72.58 58.23 63.75 49.36 63.75 49.32c0-0.11 39.3-39.41 39.41-39.41 0.05 0 8.94 8.86 19.77 19.69l19.68 19.69-19.68 19.68c-10.83 10.83-19.74 19.68-19.81 19.68-0.07 0-8.96-8.83-19.75-19.62z" style="fill:#abcf68;stroke-width:0.08"/>
  <path id="path29" d="m112.8 98.36c-2.85-2.85-5.19-5.22-5.19-5.27 0-0.05 2.36-2.45 5.25-5.33l5.25-5.25 5.27 5.27 5.27 5.27-5.25 5.25c-2.89 2.89-5.29 5.25-5.33 5.25-0.05 0-2.42-2.33-5.27-5.19zM16.4 75.54C7.52 66.66 0.25 59.36 0.25 59.31c0-0.05 7.28-7.36 16.17-16.26L32.6 26.88 48.77 43.05c8.89 8.89 16.17 16.21 16.17 16.26 0 0.08-32.26 32.39-32.34 32.39-0.02 0-7.31-7.27-16.19-16.15zM83.46 68.94 63.84 49.32 83.5 29.65 103.17 9.99l19.64 19.64 19.64 19.64-19.64 19.64c-10.8 10.8-19.66 19.64-19.68 19.64-0.02 0-8.87-8.83-19.66-19.62z" style="fill:#f9b62f;stroke-width:0.08"/>
  <path id="path27" d="M16.4 75.54C7.52 66.66 0.25 59.36 0.25 59.31c0-0.05 7.28-7.36 16.17-16.26L32.6 26.88 48.77 43.05c8.89 8.89 16.17 16.21 16.17 16.26 0 0.08-32.26 32.39-32.34 32.39-0.02 0-7.31-7.27-16.19-16.15zM83.46 68.94 63.84 49.32 83.5 29.65 103.17 9.99l19.64 19.64 19.64 19.64-19.64 19.64c-10.8 10.8-19.66 19.64-19.68 19.64-0.02 0-8.87-8.83-19.66-19.62z" style="fill:#92c13b;stroke-width:0.08"/>
  <path id="path25" d="M16.4 75.54C7.52 66.66 0.25 59.36 0.25 59.31c0-0.05 7.28-7.36 16.17-16.26L32.6 26.88 48.77 43.05c8.89 8.89 16.17 16.21 16.17 16.26 0 0.08-32.26 32.39-32.34 32.39-0.02 0-7.31-7.27-16.19-16.15zM83.5 68.9 63.92 49.32 83.54 29.7 103.17 10.08l19.6 19.6 19.6 19.6-19.6 19.6c-10.78 10.78-19.62 19.6-19.64 19.6-0.02 0-8.85-8.81-19.62-19.58z" style="fill:#00a2e1;stroke-width:0.08"/>
  <path id="path23" d="M83.5 68.9 63.92 49.32 83.54 29.7 103.17 10.08l19.6 19.6 19.6 19.6-19.6 19.6c-10.78 10.78-19.62 19.6-19.64 19.6-0.02 0-8.85-8.81-19.62-19.58z" style="fill:#8bbd2e;stroke-width:0.08"/>
</svg>
