<?xml version="1.0" standalone="no"?>
<!DOCTYPE svg PUBLIC "-//W3C//DTD SVG 1.1//EN"
 "http://www.w3.org/Graphics/SVG/1.1/DTD/svg11.dtd">
<!-- Created with svg_stack (http://github.com/astraw/svg_stack) -->
<svg xmlns="http://www.w3.org/2000/svg" xmlns:sodipodi="http://sodipodi.sourceforge.net/DTD/sodipodi-0.dtd" xmlns:xlink="http://www.w3.org/1999/xlink" version="1.1" width="996.25" height="606.25">
  <defs/>
  <g id="id0:id0" transform="matrix(1.25,0,0,1.25,0.0,0.0)"><g id="id0:graph0" class="graph" transform="scale(1 1) rotate(0) translate(4 481)">
<title>largeRelationshipsDiagram</title>
<polygon fill="#ffffff" stroke="transparent" points="-4,4 -4,-481 442,-481 442,4 -4,4"/>
<text text-anchor="middle" x="73.5" y="-7.2" font-family="Helvetica,sans-Serif" font-size="11.00">Generated by SchemaSpy</text>
<!-- time_overview -->
<g id="id0:node1" class="node">
<title>time_overview</title>
<g id="id0:a_node1"><a xlink:href="../../tables/time_overview.html" xlink:title="time_overview" target="_top">
<polygon fill="#ffffff" stroke="transparent" points="228,-37 228,-473 430,-473 430,-37 228,-37"/>
<polygon fill="#f5f5f5" stroke="transparent" points="228,-451 228,-473 430,-473 430,-451 228,-451"/>
<polygon fill="none" stroke="black" points="228,-451 228,-473 430,-473 430,-451 228,-451"/>
<text text-anchor="start" x="233" y="-460.2" font-family="Helvetica,sans-Serif" font-weight="bold" font-size="11.00">time_overview</text>
<text text-anchor="start" x="391" y="-459.2" font-family="Helvetica,sans-Serif" font-size="11.00">[table]</text>
<polygon fill="none" stroke="black" points="228,-429 228,-451 430,-451 430,-429 228,-429"/>
<image xlink:href="../../images/primaryKeys.png" width="11px" height="12px" preserveAspectRatio="xMinYMin meet" x="233" y="-446"/>
<text text-anchor="start" x="248" y="-437.2" font-family="Helvetica,sans-Serif" font-size="11.00">product_ref</text>
<polygon fill="none" stroke="black" points="228,-407 228,-429 430,-429 430,-407 228,-407"/>
<image xlink:href="../../images/primaryKeys.png" width="11px" height="12px" preserveAspectRatio="xMinYMin meet" x="233" y="-424"/>
<text text-anchor="start" x="248" y="-415.2" font-family="Helvetica,sans-Serif" font-size="11.00">period_type</text>
<polygon fill="none" stroke="black" points="228,-385 228,-407 430,-407 430,-385 228,-385"/>
<image xlink:href="../../images/primaryKeys.png" width="11px" height="12px" preserveAspectRatio="xMinYMin meet" x="233" y="-402"/>
<text text-anchor="start" x="248" y="-393.2" font-family="Helvetica,sans-Serif" font-size="11.00">start_day</text>
<polygon fill="none" stroke="black" points="228,-363 228,-385 430,-385 430,-363 228,-363"/>
<text text-anchor="start" x="248" y="-371.2" font-family="Helvetica,sans-Serif" font-size="11.00">dataset_count</text>
<polygon fill="none" stroke="black" points="228,-341 228,-363 430,-363 430,-341 228,-341"/>
<text text-anchor="start" x="248" y="-349.2" font-family="Helvetica,sans-Serif" font-size="11.00">time_earliest</text>
<polygon fill="none" stroke="black" points="228,-319 228,-341 430,-341 430,-319 228,-319"/>
<text text-anchor="start" x="248" y="-327.2" font-family="Helvetica,sans-Serif" font-size="11.00">time_latest</text>
<polygon fill="none" stroke="black" points="228,-297 228,-319 430,-319 430,-297 228,-297"/>
<text text-anchor="start" x="248" y="-305.2" font-family="Helvetica,sans-Serif" font-size="11.00">timeline_period</text>
<polygon fill="none" stroke="black" points="228,-275 228,-297 430,-297 430,-275 228,-275"/>
<text text-anchor="start" x="248" y="-283.2" font-family="Helvetica,sans-Serif" font-size="11.00">timeline_dataset_start_days</text>
<polygon fill="none" stroke="black" points="228,-253 228,-275 430,-275 430,-253 228,-253"/>
<text text-anchor="start" x="248" y="-261.2" font-family="Helvetica,sans-Serif" font-size="11.00">timeline_dataset_counts</text>
<polygon fill="none" stroke="black" points="228,-231 228,-253 430,-253 430,-231 228,-231"/>
<text text-anchor="start" x="248" y="-239.2" font-family="Helvetica,sans-Serif" font-size="11.00">regions</text>
<polygon fill="none" stroke="black" points="228,-209 228,-231 430,-231 430,-209 228,-209"/>
<text text-anchor="start" x="248" y="-217.2" font-family="Helvetica,sans-Serif" font-size="11.00">region_dataset_counts</text>
<polygon fill="none" stroke="black" points="228,-187 228,-209 430,-209 430,-187 228,-187"/>
<text text-anchor="start" x="248" y="-195.2" font-family="Helvetica,sans-Serif" font-size="11.00">newest_dataset_creation_time</text>
<polygon fill="none" stroke="black" points="228,-165 228,-187 430,-187 430,-165 228,-165"/>
<text text-anchor="start" x="248" y="-173.2" font-family="Helvetica,sans-Serif" font-size="11.00">generation_time</text>
<polygon fill="none" stroke="black" points="228,-143 228,-165 430,-165 430,-143 228,-143"/>
<text text-anchor="start" x="248" y="-151.2" font-family="Helvetica,sans-Serif" font-size="11.00">footprint_count</text>
<polygon fill="none" stroke="black" points="228,-121 228,-143 430,-143 430,-121 228,-121"/>
<text text-anchor="start" x="248" y="-129.2" font-family="Helvetica,sans-Serif" font-size="11.00">footprint_geometry</text>
<polygon fill="none" stroke="black" points="228,-99 228,-121 430,-121 430,-99 228,-99"/>
<text text-anchor="start" x="248" y="-107.2" font-family="Helvetica,sans-Serif" font-size="11.00">crses</text>
<polygon fill="none" stroke="black" points="228,-77 228,-99 430,-99 430,-77 228,-77"/>
<text text-anchor="start" x="248" y="-85.2" font-family="Helvetica,sans-Serif" font-size="11.00">size_bytes</text>
<polygon fill="none" stroke="black" points="228,-55 228,-77 430,-77 430,-55 228,-55"/>
<text text-anchor="start" x="248" y="-63.2" font-family="Helvetica,sans-Serif" font-size="11.00">product_refresh_time</text>
<polygon fill="#ffffff" stroke="transparent" points="228,-37 228,-55 327,-55 327,-37 228,-37"/>
<polygon fill="none" stroke="black" points="228,-37 228,-55 327,-55 327,-37 228,-37"/>
<text text-anchor="start" x="231" y="-43.2" font-family="Helvetica,sans-Serif" font-size="11.00">&lt; 1</text>
<polygon fill="#ffffff" stroke="transparent" points="327,-37 327,-55 378,-55 378,-37 327,-37"/>
<polygon fill="none" stroke="black" points="327,-37 327,-55 378,-55 378,-37 327,-37"/>
<text text-anchor="start" x="368" y="-43.2" font-family="Helvetica,sans-Serif" font-size="11.00"> &#160;</text>
<polygon fill="#ffffff" stroke="transparent" points="378,-37 378,-55 430,-55 430,-37 378,-37"/>
<polygon fill="none" stroke="black" points="378,-37 378,-55 430,-55 430,-37 378,-37"/>
<text text-anchor="start" x="420" y="-43.2" font-family="Helvetica,sans-Serif" font-size="11.00"> &#160;</text>
</a>
</g>
</g>
<!-- product -->
<g id="id0:node2" class="node">
<title>product</title>
<g id="id0:a_node2"><a xlink:href="../../tables/product.html" xlink:title="product" target="_top">
<polygon fill="#ffffff" stroke="transparent" points="8,-213 8,-473 179,-473 179,-213 8,-213"/>
<polygon fill="#f5f5f5" stroke="transparent" points="8.5,-451 8.5,-473 179.5,-473 179.5,-451 8.5,-451"/>
<polygon fill="none" stroke="black" points="8.5,-451 8.5,-473 179.5,-473 179.5,-451 8.5,-451"/>
<text text-anchor="start" x="13" y="-460.2" font-family="Helvetica,sans-Serif" font-weight="bold" font-size="11.00">product</text>
<text text-anchor="start" x="140.5" y="-459.2" font-family="Helvetica,sans-Serif" font-size="11.00">[table]</text>
<polygon fill="none" stroke="black" points="8.5,-429 8.5,-451 179.5,-451 179.5,-429 8.5,-429"/>
<image xlink:href="../../images/primaryKeys.png" width="11px" height="12px" preserveAspectRatio="xMinYMin meet" x="13.5" y="-446"/>
<text text-anchor="start" x="28.5" y="-437.2" font-family="Helvetica,sans-Serif" font-size="11.00">id</text>
<polygon fill="#ffffff" stroke="transparent" points="8.5,-407 8.5,-429 179.5,-429 179.5,-407 8.5,-407"/>
<polygon fill="none" stroke="black" points="8.5,-407 8.5,-429 179.5,-429 179.5,-407 8.5,-407"/>
<text text-anchor="start" x="28.5" y="-415.2" font-family="Helvetica,sans-Serif" font-size="11.00">name</text>
<polygon fill="none" stroke="black" points="8.5,-385 8.5,-407 179.5,-407 179.5,-385 8.5,-385"/>
<text text-anchor="start" x="28.5" y="-393.2" font-family="Helvetica,sans-Serif" font-size="11.00">dataset_count</text>
<polygon fill="none" stroke="black" points="8.5,-363 8.5,-385 179.5,-385 179.5,-363 8.5,-363"/>
<text text-anchor="start" x="28.5" y="-371.2" font-family="Helvetica,sans-Serif" font-size="11.00">last_refresh</text>
<polygon fill="none" stroke="black" points="8.5,-341 8.5,-363 179.5,-363 179.5,-341 8.5,-341"/>
<text text-anchor="start" x="28.5" y="-349.2" font-family="Helvetica,sans-Serif" font-size="11.00">source_product_refs</text>
<polygon fill="none" stroke="black" points="8.5,-319 8.5,-341 179.5,-341 179.5,-319 8.5,-319"/>
<text text-anchor="start" x="28.5" y="-327.2" font-family="Helvetica,sans-Serif" font-size="11.00">derived_product_refs</text>
<polygon fill="none" stroke="black" points="8.5,-297 8.5,-319 179.5,-319 179.5,-297 8.5,-297"/>
<text text-anchor="start" x="28.5" y="-305.2" font-family="Helvetica,sans-Serif" font-size="11.00">time_earliest</text>
<polygon fill="none" stroke="black" points="8.5,-275 8.5,-297 179.5,-297 179.5,-275 8.5,-275"/>
<text text-anchor="start" x="28.5" y="-283.2" font-family="Helvetica,sans-Serif" font-size="11.00">time_latest</text>
<polygon fill="none" stroke="black" points="8.5,-253 8.5,-275 179.5,-275 179.5,-253 8.5,-253"/>
<text text-anchor="start" x="28.5" y="-261.2" font-family="Helvetica,sans-Serif" font-size="11.00">fixed_metadata</text>
<polygon fill="none" stroke="black" points="8.5,-231 8.5,-253 179.5,-253 179.5,-231 8.5,-231"/>
<text text-anchor="start" x="28.5" y="-239.2" font-family="Helvetica,sans-Serif" font-size="11.00">last_successful_summary</text>
<polygon fill="#ffffff" stroke="transparent" points="8.5,-213 8.5,-231 82.5,-231 82.5,-213 8.5,-213"/>
<polygon fill="none" stroke="black" points="8.5,-213 8.5,-231 82.5,-231 82.5,-213 8.5,-213"/>
<text text-anchor="start" x="11.5" y="-219.2" font-family="Helvetica,sans-Serif" font-size="11.00"> &#160;</text>
<polygon fill="#ffffff" stroke="transparent" points="82.5,-213 82.5,-231 126.5,-231 126.5,-213 82.5,-213"/>
<polygon fill="none" stroke="black" points="82.5,-213 82.5,-231 126.5,-231 126.5,-213 82.5,-213"/>
<text text-anchor="start" x="116.5" y="-219.2" font-family="Helvetica,sans-Serif" font-size="11.00"> &#160;</text>
<polygon fill="#ffffff" stroke="transparent" points="126.5,-213 126.5,-231 179.5,-231 179.5,-213 126.5,-213"/>
<polygon fill="none" stroke="black" points="126.5,-213 126.5,-231 179.5,-231 179.5,-213 126.5,-213"/>
<text text-anchor="start" x="160.5" y="-219.2" font-family="Helvetica,sans-Serif" font-size="11.00">1 &gt;</text>
</a>
</g>
</g>
<!-- time_overview&#45;&gt;product -->
<g id="id0:edge1" class="edge">
<title>time_overview:w-&gt;product:e</title>
<path fill="none" stroke="black" d="M212.55,-440C202.2,-440 195.35,-440 180.5,-440"/>
<polygon fill="black" stroke="black" points="219,-440 227,-443.6 223,-440 227,-440 227,-440 227,-440 223,-440 227,-436.4 219,-440 219,-440"/>
<ellipse fill="none" stroke="black" cx="215.8" cy="-440" rx="3.2" ry="3.2"/>
</g>
</g>
</g>
  <g id="id1:id1" transform="matrix(1.25,0,0,1.25,657.5,60.0)"><g id="id1:graph0" class="graph" transform="scale(1 1) rotate(0) translate(4 385)">
<title>orphans</title>
<polygon fill="#ffffff" stroke="transparent" points="-4,4 -4,-385 267,-385 267,4 -4,4"/>
<!-- dataset_spatial -->
<g id="id1:node1" class="node">
<title>dataset_spatial</title>
<g id="id1:a_node1"><a xlink:href="../../tables/dataset_spatial.html" xlink:title="dataset_spatial" target="_top">
<polygon fill="#ffffff" stroke="transparent" points="8,-4 8,-202 255,-202 255,-4 8,-4"/>
<polygon fill="#f5f5f5" stroke="transparent" points="10.5,-178 10.5,-200 253.5,-200 253.5,-178 10.5,-178"/>
<polygon fill="none" stroke="black" points="10.5,-178 10.5,-200 253.5,-200 253.5,-178 10.5,-178"/>
<text text-anchor="start" x="15.5" y="-187.2" font-family="Helvetica,sans-Serif" font-weight="bold" font-size="11.00">dataset_spatial</text>
<text text-anchor="start" x="214.5" y="-186.2" font-family="Helvetica,sans-Serif" font-size="11.00">[table]</text>
<polygon fill="none" stroke="black" points="10.5,-156 10.5,-178 130.5,-178 130.5,-156 10.5,-156"/>
<image xlink:href="../../images/primaryKeys.png" width="11px" height="12px" preserveAspectRatio="xMinYMin meet" x="15.5" y="-173"/>
<text text-anchor="start" x="30.5" y="-164.2" font-family="Helvetica,sans-Serif" font-size="11.00">id</text>
<polygon fill="none" stroke="black" points="130.5,-156 130.5,-178 253.5,-178 253.5,-156 130.5,-156"/>
<text text-anchor="start" x="133.5" y="-164.2" font-family="Helvetica,sans-Serif" font-size="11.00">uuid[2147483647]</text>
<polygon fill="#ffffff" stroke="transparent" points="10.5,-134 10.5,-156 130.5,-156 130.5,-134 10.5,-134"/>
<polygon fill="none" stroke="black" points="10.5,-134 10.5,-156 130.5,-156 130.5,-134 10.5,-134"/>
<text text-anchor="start" x="30.5" y="-142.2" font-family="Helvetica,sans-Serif" font-size="11.00">dataset_type_ref</text>
<polygon fill="none" stroke="black" points="130.5,-134 130.5,-156 253.5,-156 253.5,-134 130.5,-134"/>
<text text-anchor="start" x="133.5" y="-142.2" font-family="Helvetica,sans-Serif" font-size="11.00">int2[5]</text>
<polygon fill="#ffffff" stroke="transparent" points="10.5,-112 10.5,-134 130.5,-134 130.5,-112 10.5,-112"/>
<polygon fill="none" stroke="black" points="10.5,-112 10.5,-134 130.5,-134 130.5,-112 10.5,-112"/>
<text text-anchor="start" x="30.5" y="-120.2" font-family="Helvetica,sans-Serif" font-size="11.00">center_time</text>
<polygon fill="none" stroke="black" points="130.5,-112 130.5,-134 253.5,-134 253.5,-112 130.5,-112"/>
<text text-anchor="start" x="133.5" y="-120.2" font-family="Helvetica,sans-Serif" font-size="11.00">timestamptz[35,6]</text>
<polygon fill="none" stroke="black" points="10.5,-90 10.5,-112 130.5,-112 130.5,-90 10.5,-90"/>
<text text-anchor="start" x="30.5" y="-98.2" font-family="Helvetica,sans-Serif" font-size="11.00">creation_time</text>
<polygon fill="none" stroke="black" points="130.5,-90 130.5,-112 253.5,-112 253.5,-90 130.5,-90"/>
<text text-anchor="start" x="133.5" y="-98.2" font-family="Helvetica,sans-Serif" font-size="11.00">timestamptz[35,6]</text>
<polygon fill="#ffffff" stroke="transparent" points="10.5,-68 10.5,-90 130.5,-90 130.5,-68 10.5,-68"/>
<polygon fill="none" stroke="black" points="10.5,-68 10.5,-90 130.5,-90 130.5,-68 10.5,-68"/>
<text text-anchor="start" x="30.5" y="-76.2" font-family="Helvetica,sans-Serif" font-size="11.00">region_code</text>
<polygon fill="none" stroke="black" points="130.5,-68 130.5,-90 253.5,-90 253.5,-68 130.5,-68"/>
<text text-anchor="start" x="133.5" y="-76.2" font-family="Helvetica,sans-Serif" font-size="11.00">varchar[2147483647]</text>
<polygon fill="none" stroke="black" points="10.5,-46 10.5,-68 130.5,-68 130.5,-46 10.5,-46"/>
<text text-anchor="start" x="30.5" y="-54.2" font-family="Helvetica,sans-Serif" font-size="11.00">size_bytes</text>
<polygon fill="none" stroke="black" points="130.5,-46 130.5,-68 253.5,-68 253.5,-46 130.5,-46"/>
<text text-anchor="start" x="133.5" y="-54.2" font-family="Helvetica,sans-Serif" font-size="11.00">int8[19]</text>
<polygon fill="none" stroke="black" points="10.5,-24 10.5,-46 130.5,-46 130.5,-24 10.5,-24"/>
<text text-anchor="start" x="30.5" y="-32.2" font-family="Helvetica,sans-Serif" font-size="11.00">footprint</text>
<polygon fill="none" stroke="black" points="130.5,-24 130.5,-46 253.5,-46 253.5,-24 130.5,-24"/>
<text text-anchor="start" x="133.5" y="-32.2" font-family="Helvetica,sans-Serif" font-size="11.00">geometry[2147483647]</text>
<polygon fill="#ffffff" stroke="transparent" points="10.5,-6 10.5,-24 74.5,-24 74.5,-6 10.5,-6"/>
<polygon fill="none" stroke="black" points="10.5,-6 10.5,-24 74.5,-24 74.5,-6 10.5,-6"/>
<text text-anchor="start" x="13.5" y="-12.2" font-family="Helvetica,sans-Serif" font-size="11.00">&lt; 0</text>
<polygon fill="#ffffff" stroke="transparent" points="74.5,-6 74.5,-24 130.5,-24 130.5,-6 74.5,-6"/>
<polygon fill="none" stroke="black" points="74.5,-6 74.5,-24 130.5,-24 130.5,-6 74.5,-6"/>
<text text-anchor="start" x="120.5" y="-12.2" font-family="Helvetica,sans-Serif" font-size="11.00"> &#160;</text>
<polygon fill="#ffffff" stroke="transparent" points="130.5,-6 130.5,-24 253.5,-24 253.5,-6 130.5,-6"/>
<polygon fill="none" stroke="black" points="130.5,-6 130.5,-24 253.5,-24 253.5,-6 130.5,-6"/>
<text text-anchor="start" x="234.5" y="-12.2" font-family="Helvetica,sans-Serif" font-size="11.00">0 &gt;</text>
<polygon fill="none" stroke="black" stroke-width="2" points="9,-5 9,-201 254,-201 254,-5 9,-5"/>
</a>
</g>
</g>
<!-- region -->
<g id="id1:node2" class="node">
<title>region</title>
<g id="id1:a_node2"><a xlink:href="../../tables/region.html" xlink:title="region" target="_top">
<polygon fill="#ffffff" stroke="transparent" points="8,-223 8,-377 255,-377 255,-223 8,-223"/>
<polygon fill="#f5f5f5" stroke="transparent" points="10.5,-353 10.5,-375 253.5,-375 253.5,-353 10.5,-353"/>
<polygon fill="none" stroke="black" points="10.5,-353 10.5,-375 253.5,-375 253.5,-353 10.5,-353"/>
<text text-anchor="start" x="14.5" y="-362.2" font-family="Helvetica,sans-Serif" font-weight="bold" font-size="11.00">region</text>
<text text-anchor="start" x="214.5" y="-361.2" font-family="Helvetica,sans-Serif" font-size="11.00">[table]</text>
<polygon fill="none" stroke="black" points="10.5,-331 10.5,-353 130.5,-353 130.5,-331 10.5,-331"/>
<image xlink:href="../../images/primaryKeys.png" width="11px" height="12px" preserveAspectRatio="xMinYMin meet" x="15.5" y="-348"/>
<text text-anchor="start" x="30.5" y="-339.2" font-family="Helvetica,sans-Serif" font-size="11.00">dataset_type_ref</text>
<polygon fill="none" stroke="black" points="130.5,-331 130.5,-353 253.5,-353 253.5,-331 130.5,-331"/>
<text text-anchor="start" x="133.5" y="-339.2" font-family="Helvetica,sans-Serif" font-size="11.00">int2[5]</text>
<polygon fill="none" stroke="black" points="10.5,-309 10.5,-331 130.5,-331 130.5,-309 10.5,-309"/>
<image xlink:href="../../images/primaryKeys.png" width="11px" height="12px" preserveAspectRatio="xMinYMin meet" x="15.5" y="-326"/>
<text text-anchor="start" x="30.5" y="-317.2" font-family="Helvetica,sans-Serif" font-size="11.00">region_code</text>
<polygon fill="none" stroke="black" points="130.5,-309 130.5,-331 253.5,-331 253.5,-309 130.5,-309"/>
<text text-anchor="start" x="133.5" y="-317.2" font-family="Helvetica,sans-Serif" font-size="11.00">varchar[2147483647]</text>
<polygon fill="none" stroke="black" points="10.5,-287 10.5,-309 130.5,-309 130.5,-287 10.5,-287"/>
<text text-anchor="start" x="30.5" y="-295.2" font-family="Helvetica,sans-Serif" font-size="11.00">count</text>
<polygon fill="none" stroke="black" points="130.5,-287 130.5,-309 253.5,-309 253.5,-287 130.5,-287"/>
<text text-anchor="start" x="133.5" y="-295.2" font-family="Helvetica,sans-Serif" font-size="11.00">int4[10]</text>
<polygon fill="none" stroke="black" points="10.5,-265 10.5,-287 130.5,-287 130.5,-265 10.5,-265"/>
<text text-anchor="start" x="30.5" y="-273.2" font-family="Helvetica,sans-Serif" font-size="11.00">generation_time</text>
<polygon fill="none" stroke="black" points="130.5,-265 130.5,-287 253.5,-287 253.5,-265 130.5,-265"/>
<text text-anchor="start" x="133.5" y="-273.2" font-family="Helvetica,sans-Serif" font-size="11.00">timestamptz[35,6]</text>
<polygon fill="none" stroke="black" points="10.5,-243 10.5,-265 130.5,-265 130.5,-243 10.5,-243"/>
<text text-anchor="start" x="30.5" y="-251.2" font-family="Helvetica,sans-Serif" font-size="11.00">footprint</text>
<polygon fill="none" stroke="black" points="130.5,-243 130.5,-265 253.5,-265 253.5,-243 130.5,-243"/>
<text text-anchor="start" x="133.5" y="-251.2" font-family="Helvetica,sans-Serif" font-size="11.00">geometry[2147483647]</text>
<polygon fill="#ffffff" stroke="transparent" points="10.5,-225 10.5,-243 74.5,-243 74.5,-225 10.5,-225"/>
<polygon fill="none" stroke="black" points="10.5,-225 10.5,-243 74.5,-243 74.5,-225 10.5,-225"/>
<text text-anchor="start" x="13.5" y="-231.2" font-family="Helvetica,sans-Serif" font-size="11.00">&lt; 0</text>
<polygon fill="#ffffff" stroke="transparent" points="74.5,-225 74.5,-243 130.5,-243 130.5,-225 74.5,-225"/>
<polygon fill="none" stroke="black" points="74.5,-225 74.5,-243 130.5,-243 130.5,-225 74.5,-225"/>
<text text-anchor="start" x="120.5" y="-231.2" font-family="Helvetica,sans-Serif" font-size="11.00"> &#160;</text>
<polygon fill="#ffffff" stroke="transparent" points="130.5,-225 130.5,-243 253.5,-243 253.5,-225 130.5,-225"/>
<polygon fill="none" stroke="black" points="130.5,-225 130.5,-243 253.5,-243 253.5,-225 130.5,-225"/>
<text text-anchor="start" x="234.5" y="-231.2" font-family="Helvetica,sans-Serif" font-size="11.00">0 &gt;</text>
<polygon fill="none" stroke="black" stroke-width="2" points="9,-224 9,-376 254,-376 254,-224 9,-224"/>
</a>
</g>
</g>
</g>
</g>
</svg>
