<?xml version="1.0" encoding="UTF-8" standalone="no"?>
<svg
   xmlns:dc="http://purl.org/dc/elements/1.1/"
   xmlns:cc="http://creativecommons.org/ns#"
   xmlns:rdf="http://www.w3.org/1999/02/22-rdf-syntax-ns#"
   xmlns:svg="http://www.w3.org/2000/svg"
   xmlns="http://www.w3.org/2000/svg"
   preserveAspectRatio="true"
   viewBox="0 0 385.8204 115.829"
   version="1.1"
   id="svg">
  <metadata
     id="metadata18">
    <rdf:RDF>
      <cc:Work
         rdf:about="">
        <dc:format>image/svg+xml</dc:format>
        <dc:type
           rdf:resource="http://purl.org/dc/dcmitype/StillImage" />
        <dc:title></dc:title>
      </cc:Work>
    </rdf:RDF>
  </metadata>
  <defs
     id="defs16" />
  <g
     transform="translate(-7.445,-18.170999)"
     id="svgg">
    <path
       style="fill:#000000;fill-rule:evenodd;stroke:none"
       d="m 327.039,72.5 c 0,0.321 0.034,0.452 0.076,0.292 0.042,-0.161 0.042,-0.423 0,-0.584 -0.042,-0.16 -0.076,-0.029 -0.076,0.292 m -6.295,26.833 c 0,4.813 0.022,6.782 0.048,4.375 0.026,-2.406 0.026,-6.343 0,-8.75 -0.026,-2.406 -0.048,-0.437 -0.048,4.375"
       id="path0" />
    <path
       style="fill:#333333;fill-rule:evenodd;stroke:none"
       d="m 370.744,99.417 c 0,4.766 0.022,6.692 0.048,4.28 0.026,-2.413 0.026,-6.313 0,-8.667 -0.027,-2.354 -0.048,-0.38 -0.048,4.387 M 271.907,96 c 0,2.796 0.023,3.94 0.051,2.542 0.028,-1.398 0.028,-3.686 0,-5.084 -0.028,-1.398 -0.051,-0.254 -0.051,2.542"
       id="path1" />
    <path
       style="fill:#ff9900;fill-rule:evenodd;stroke:none"
       d=""
       id="path2" />
    <path
       style="fill:#f2b83d;fill-rule:evenodd;stroke:none"
       d="m 135.572,113.502 c -1.932,1.926 -3.476,3.539 -3.431,3.583 0.045,0.045 -0.003,0.082 -0.106,0.082 -0.243,0 -1.028,0.785 -0.906,0.906 0.051,0.052 0.009,0.094 -0.094,0.094 -0.102,0 -0.369,0.183 -0.593,0.406 -0.224,0.224 -0.365,0.449 -0.313,0.5 0.051,0.052 0.009,0.094 -0.094,0.094 -0.243,0 -1.028,0.785 -0.906,0.906 0.051,0.052 0.009,0.094 -0.094,0.094 -0.102,0 -0.369,0.183 -0.593,0.406 -0.224,0.224 -0.365,0.449 -0.313,0.5 0.051,0.052 0,0.094 -0.113,0.094 -0.291,0 -0.683,0.426 -0.683,0.743 0,0.204 11.68,12.09 11.88,12.09 0.11,0 11.959,-11.934 11.976,-12.062 0.027,-0.203 -11.691,-11.938 -11.92,-11.938 -0.102,0 -1.766,1.576 -3.697,3.502"
       id="path3" />
    <path
       style="fill:#73ca23;fill-rule:evenodd;stroke:none"
       d="M 100.417,51.082 C 88.363,63.136 78.5,73.08 78.5,73.18 c 0,0.2 43.897,44.153 44.097,44.153 0.224,0 44.061,-43.911 44.065,-44.139 0.006,-0.314 -43.744,-44.027 -44.064,-44.027 -0.145,0 -10.126,9.862 -22.181,21.915"
       id="path4" />
    <path
       style="fill:#00ffff;fill-rule:evenodd;stroke:none"
       d="m 370.906,74.5 c 0,2.521 0.024,3.552 0.052,2.292 0.028,-1.261 0.028,-3.323 0,-4.584 -0.028,-1.26 -0.052,-0.229 -0.052,2.292"
       id="path5" />
    <path
       style="fill:#3297df;fill-rule:evenodd;stroke:none"
       d="m 25.68,66.07 -18.235,18.236 18.18,18.18 c 9.999,10 18.268,18.181 18.375,18.181 0.272,0 36.333,-36.088 36.333,-36.36 0,-0.2 -36.134,-36.474 -36.332,-36.474 -0.047,0 -8.291,8.207 -18.321,18.237 m 165.573,-9.044 c -0.052,0.215 -0.074,5.303 -0.049,11.307 l 0.046,10.917 5.833,-0.014 c 3.697,-0.008 6.23,-0.085 6.917,-0.21 1.209,-0.219 2.618,-0.652 2.698,-0.828 0.028,-0.063 0.336,-0.259 0.683,-0.436 1.086,-0.553 2.585,-2.16 3.167,-3.396 0.203,-0.43 0.422,-0.823 0.486,-0.871 0.327,-0.247 1.003,-3.994 1.007,-5.578 0.008,-3.934 -2.007,-8.162 -4.538,-9.522 -0.319,-0.171 -0.671,-0.396 -0.783,-0.499 -0.111,-0.103 -0.712,-0.316 -1.336,-0.473 -0.624,-0.156 -1.284,-0.371 -1.467,-0.477 -0.23,-0.133 -2.231,-0.211 -6.452,-0.251 l -6.118,-0.059 -0.094,0.39 m 23.08,1.891 v 2.25 h 2.75 2.75 v -2.25 -2.25 h -2.75 -2.75 v 2.25 m 27,0 v 2.258 l 2.792,-0.046 2.792,-0.046 V 58.917 56.75 l -2.792,-0.046 -2.792,-0.045 v 2.258 M 279.167,68 v 11.333 h 2.75 2.75 V 68 56.667 h -2.75 -2.75 V 68 M 296.5,67.999 v 11.334 h 9.167 9.166 V 76.75 74.167 h -6.083 -6.083 v -2 -2 h 5.416 5.417 v -2.5 -2.5 h -5.417 -5.416 V 63.5 61.833 h 6.004 6.004 l -0.046,-2.541 -0.046,-2.542 -9.041,-0.043 -9.042,-0.043 V 67.999 M 360.333,68 v 11.333 h 2.75 2.75 v -4.677 c 0,-6.622 0.566,-7.854 3.405,-7.413 1.629,0.254 1.662,0.377 1.761,6.674 l 0.084,5.333 2.803,0.046 2.802,0.045 -0.052,-6.462 -0.053,-6.462 -0.489,-0.966 c -0.506,-0.999 -1.729,-2.284 -2.174,-2.284 -0.139,0 -0.253,-0.07 -0.253,-0.155 0,-0.303 -1.782,-0.553 -3.432,-0.481 -1.807,0.078 -3.215,0.655 -3.808,1.56 -0.535,0.816 -0.594,0.467 -0.594,-3.508 v -3.916 h -2.75 -2.75 V 68 M 250.611,57.944 c -0.061,0.062 -0.111,1.183 -0.111,2.493 v 2.382 l -1.292,0.049 -1.291,0.049 -0.047,1.875 -0.048,1.875 h 1.326 1.326 l 0.055,4.98 0.054,4.98 0.618,0.896 c 0.606,0.88 1.355,1.477 1.852,1.477 0.139,0 0.284,0.094 0.322,0.208 0.052,0.157 0.815,0.209 3.056,0.209 h 2.986 l 0.046,-2.125 0.047,-2.125 h -1.262 c -1.972,0 -1.893,0.184 -1.95,-4.549 l -0.048,-3.952 1.625,0.001 H 259.5 V 64.75 62.833 h -1.583 -1.584 v -2.3 c 0,-1.566 -0.063,-2.363 -0.2,-2.5 -0.215,-0.215 -5.313,-0.297 -5.522,-0.089 m 99.004,-0.004 c -0.063,0.064 -0.115,1.188 -0.115,2.498 v 2.382 l -1.375,0.048 c -1.067,0.038 -1.419,-0.007 -1.571,-0.201 -0.688,-0.878 -3.855,-0.046 -5.25,1.379 L 340.5,64.867 V 63.85 62.833 h -2.667 -2.666 v 8.25 8.25 h 2.734 2.735 l 0.057,-4.673 c 0.035,-2.857 0.122,-4.719 0.224,-4.791 0.091,-0.066 0.289,-0.384 0.438,-0.707 0.544,-1.18 1.44,-1.58 3.507,-1.567 l 1.805,0.011 v -0.47 -0.469 h 1.407 1.408 l 0.051,5.041 0.05,5.042 0.555,0.852 c 0.946,1.452 1.942,1.801 5.343,1.871 3.251,0.067 3.013,0.253 3.016,-2.348 l 0.003,-1.958 h -1.381 c -1.985,0 -1.952,0.079 -1.952,-4.728 v -3.76 l 1.625,-0.048 1.625,-0.048 V 64.75 62.917 l -1.621,-0.048 -1.62,-0.048 -0.047,-2.452 -0.046,-2.452 -2.676,-0.046 c -1.472,-0.025 -2.729,0.006 -2.792,0.069 m -147.5,4.262 c 2.454,0.843 3.555,2.683 3.549,5.931 -0.002,1.231 -0.379,3.341 -0.63,3.528 -0.066,0.049 -0.321,0.399 -0.566,0.777 -0.436,0.672 -1.569,1.395 -2.187,1.395 -0.155,0 -0.281,0.075 -0.281,0.167 0,0.103 -0.889,0.167 -2.333,0.167 h -2.334 V 68 61.833 h 1.853 c 1.478,0 2.071,0.075 2.929,0.369 m 24.73,0.42 c -1.859,0.349 -3.777,2.284 -4.631,4.671 -0.506,1.413 -0.688,5.039 -0.279,5.556 0.102,0.129 0.232,0.484 0.29,0.789 0.308,1.625 1.924,3.582 3.411,4.131 0.429,0.159 0.886,0.369 1.015,0.468 0.305,0.235 3.82,0.24 3.98,0.006 0.065,-0.096 0.427,-0.273 0.804,-0.394 0.377,-0.121 0.902,-0.45 1.167,-0.732 l 0.481,-0.511 0.05,1.22 c 0.091,2.246 -0.798,3.339 -2.716,3.339 -1.156,0 -1.927,-0.376 -2.28,-1.112 l -0.224,-0.47 -2.79,-0.045 c -2.698,-0.045 -2.79,-0.035 -2.79,0.289 0,1.264 1.221,3.282 2.334,3.856 0.32,0.166 0.664,0.371 0.763,0.456 1,0.859 8.759,0.911 9.397,0.063 0.05,-0.065 0.384,-0.269 0.743,-0.452 0.776,-0.396 1.641,-1.274 2.051,-2.083 0.163,-0.321 0.357,-0.629 0.433,-0.684 0.414,-0.304 0.503,-1.837 0.567,-9.775 l 0.068,-8.375 h -2.761 -2.761 v 0.75 c 0,0.76 -0.23,1.007 -0.409,0.441 -0.054,-0.17 -0.359,-0.449 -0.678,-0.621 -0.319,-0.172 -0.58,-0.367 -0.58,-0.433 0,-0.37 -3.248,-0.613 -4.655,-0.348 m 38.655,0.08 c -0.413,0.092 -0.788,0.223 -0.833,0.291 -0.046,0.069 -0.381,0.222 -0.744,0.341 -0.943,0.307 -2.341,1.754 -2.594,2.683 -0.109,0.403 -0.273,0.892 -0.364,1.086 -0.43,0.922 -0.274,0.98 2.598,0.98 h 2.642 l 0.276,-0.75 c 0.654,-1.777 4.364,-1.516 4.412,0.31 0.019,0.746 -0.143,0.951 -0.893,1.121 -0.229,0.053 -0.567,0.16 -0.75,0.24 -0.183,0.079 -1.346,0.267 -2.583,0.417 -1.238,0.15 -2.513,0.389 -2.834,0.531 -1.681,0.745 -2.028,0.953 -2.513,1.506 -0.805,0.916 -1.046,1.628 -1.059,3.125 -0.01,1.263 0.396,2.917 0.717,2.917 0.064,0 0.242,0.212 0.395,0.471 0.153,0.259 0.601,0.614 0.994,0.789 0.394,0.175 0.81,0.407 0.925,0.517 1.007,0.964 7.044,0.112 7.493,-1.058 0.15,-0.392 0.346,-0.232 0.496,0.406 l 0.148,0.625 2.789,0.046 c 2.762,0.045 3.585,-0.133 2.816,-0.608 -0.371,-0.23 -0.532,-2.411 -0.534,-7.271 -0.002,-4.765 -0.123,-6.25 -0.508,-6.25 -0.087,0 -0.159,-0.107 -0.159,-0.237 0,-0.359 -1.317,-1.412 -2.034,-1.627 -0.348,-0.104 -0.632,-0.245 -0.632,-0.312 0,-0.433 -5.999,-0.659 -7.667,-0.289 m 56,0 c -0.413,0.092 -0.788,0.223 -0.833,0.291 -0.046,0.069 -0.381,0.222 -0.744,0.341 -0.955,0.311 -2.348,1.759 -2.584,2.684 -0.102,0.403 -0.266,0.891 -0.362,1.085 -0.457,0.916 -0.287,0.98 2.586,0.98 h 2.642 l 0.276,-0.75 c 0.654,-1.777 4.364,-1.516 4.412,0.31 0.019,0.746 -0.143,0.951 -0.893,1.121 -0.229,0.053 -0.567,0.16 -0.75,0.24 -0.183,0.079 -1.346,0.267 -2.583,0.418 -1.238,0.151 -2.55,0.406 -2.917,0.567 -0.367,0.16 -0.91,0.387 -1.207,0.504 -0.652,0.257 -1.644,1.319 -2.007,2.15 -0.515,1.176 -0.18,4.857 0.442,4.857 0.064,0 0.242,0.212 0.395,0.471 0.153,0.259 0.601,0.614 0.994,0.789 0.394,0.175 0.81,0.407 0.925,0.517 1.033,0.988 6.492,0.208 7.498,-1.073 0.247,-0.314 0.274,-0.288 0.479,0.463 l 0.16,0.583 2.789,0.046 c 2.768,0.045 3.586,-0.133 2.81,-0.612 -0.36,-0.222 -0.521,-2.479 -0.526,-7.351 -0.004,-4.682 -0.126,-6.166 -0.51,-6.166 -0.087,0 -0.159,-0.107 -0.159,-0.237 0,-0.359 -1.317,-1.412 -2.034,-1.627 -0.348,-0.104 -0.632,-0.245 -0.632,-0.312 0,-0.433 -5.999,-0.659 -7.667,-0.289 m -107.167,8.381 v 8.25 h 2.75 2.75 v -8.25 -8.25 h -2.75 -2.75 v 8.25 m 27,0 v 8.258 l 2.792,-0.045 2.792,-0.046 v -8.167 -8.166 l -2.792,-0.046 -2.792,-0.046 v 8.258 m -9.583,-3.779 c 2.628,1.814 1.573,6.863 -1.434,6.863 -2.315,0 -3.623,-2.738 -2.674,-5.597 0.518,-1.559 2.705,-2.233 4.108,-1.266 m 39.415,5.154 c -0.002,0.638 -0.336,1.928 -0.653,2.52 -0.67,1.251 -3.895,1.488 -4.274,0.314 C 266.187,75.131 266.074,75 265.989,75 c -0.086,0 -0.156,-0.263 -0.156,-0.583 0,-0.321 0.063,-0.584 0.139,-0.584 0.076,0 0.239,-0.187 0.361,-0.416 0.252,-0.47 0.774,-0.65 2.693,-0.931 0.711,-0.104 1.428,-0.291 1.592,-0.416 0.461,-0.349 0.549,-0.287 0.547,0.388 m 56,-0.083 c -0.003,0.618 -0.358,2.052 -0.64,2.578 -0.24,0.448 -1.889,1.214 -2.615,1.214 -1.357,0 -2.615,-1.623 -1.868,-2.41 0.114,-0.121 0.331,-0.37 0.482,-0.553 0.203,-0.247 0.703,-0.405 1.917,-0.609 0.903,-0.151 1.83,-0.378 2.059,-0.503 0.612,-0.335 0.667,-0.312 0.665,0.283"
       id="path6" />
    <path
       style="fill:#8ec2e8;fill-rule:evenodd;stroke:none"
       d="m 61.125,30.629 c -6.852,6.854 -12.458,12.564 -12.458,12.69 0,0.284 24.837,25.172 25.126,25.177 0.115,0.002 5.877,-5.664 12.805,-12.592 L 99.194,43.308 86.638,30.742 C 79.733,23.83 73.971,18.174 73.833,18.171 73.696,18.169 67.977,23.775 61.125,30.629"
       id="path7" />
    <path
       style="fill:#0000ff;fill-rule:evenodd;stroke:none"
       d="m 247.064,58.917 c 0,1.1 0.027,1.528 0.06,0.951 0.032,-0.576 0.032,-1.476 -0.001,-2 -0.033,-0.523 -0.06,-0.051 -0.059,1.049 m 0.013,12.166 c 0,4.4 0.022,6.176 0.048,3.947 0.026,-2.229 0.026,-5.829 0,-8 -0.026,-2.171 -0.048,-0.347 -0.048,4.053 m 66.488,-3.416 c 0,1.237 0.027,1.743 0.059,1.125 0.032,-0.619 0.032,-1.632 0,-2.25 -0.032,-0.619 -0.059,-0.113 -0.059,1.125"
       id="path8" />
    <path
       style="fill:#706e6f;fill-rule:evenodd;stroke:none"
       d="m 294.167,90.274 c -1.762,0.351 -2.111,0.537 -3.438,1.839 -1.836,1.801 -1.773,5.549 0.11,6.557 0.166,0.088 0.408,0.268 0.538,0.398 0.314,0.313 3.382,1.353 4.956,1.68 2.564,0.532 3.74,1.462 3.571,2.824 -0.195,1.574 -1.19,2.18 -3.571,2.175 -2.488,-0.007 -3.648,-0.748 -4.025,-2.574 l -0.21,-1.017 -1.674,0.047 c -2.012,0.057 -2.016,0.063 -1.321,2.164 0.98,2.961 3.082,4.2 7.147,4.21 l 2.5,0.006 1.25,-0.6 c 2.404,-1.154 3.399,-2.719 3.305,-5.198 -0.03,-0.805 -0.131,-1.518 -0.223,-1.583 -0.093,-0.065 -0.308,-0.384 -0.478,-0.709 -0.41,-0.783 -1.746,-1.75 -2.912,-2.11 -0.518,-0.16 -0.98,-0.333 -1.025,-0.385 -0.046,-0.053 -0.984,-0.274 -2.084,-0.492 -1.1,-0.219 -2.037,-0.448 -2.083,-0.509 -0.046,-0.062 -0.271,-0.162 -0.5,-0.223 -1.63,-0.431 -1.678,-3.391 -0.056,-3.435 0.107,-0.003 0.226,-0.099 0.264,-0.214 0.091,-0.273 3.084,-0.293 3.257,-0.022 0.065,0.102 0.287,0.238 0.493,0.302 0.502,0.157 1.18,1.071 1.317,1.776 0.15,0.769 0.255,0.814 1.933,0.816 L 302.667,96 v -0.553 c 0,-0.646 -0.438,-2.208 -0.721,-2.574 -0.253,-0.327 -1.492,-1.566 -1.817,-1.817 -0.796,-0.615 -4.417,-1.091 -5.962,-0.782 m -33.756,1.101 c -0.155,0.481 -0.374,1.025 -0.486,1.208 -0.113,0.184 -0.362,0.784 -0.555,1.334 -0.192,0.55 -0.625,1.712 -0.962,2.583 -0.337,0.871 -0.776,2.033 -0.974,2.583 -0.199,0.55 -0.414,1.085 -0.478,1.188 -0.11,0.176 -0.702,1.727 -1.52,3.979 -0.2,0.55 -0.415,1.083 -0.478,1.184 -0.174,0.281 -0.958,2.497 -0.958,2.711 0,0.127 0.542,0.188 1.675,0.188 h 1.675 l 0.247,-0.625 c 0.136,-0.343 0.344,-0.812 0.463,-1.041 0.119,-0.229 0.358,-0.904 0.531,-1.5 0.456,-1.573 0.267,-1.5 3.893,-1.5 h 3.174 l 0.237,0.458 c 0.13,0.252 0.406,1.021 0.614,1.708 0.207,0.688 0.422,1.288 0.477,1.334 0.056,0.045 0.177,0.308 0.27,0.583 l 0.168,0.5 1.705,0.047 c 1.543,0.044 1.704,0.02 1.702,-0.25 -0.003,-0.383 -0.629,-2.387 -0.819,-2.619 -0.08,-0.098 -0.331,-0.703 -0.557,-1.345 -0.553,-1.57 -1.245,-3.389 -1.522,-4 -0.125,-0.275 -0.359,-0.912 -0.522,-1.416 -0.163,-0.505 -0.386,-1.067 -0.496,-1.25 -0.11,-0.184 -0.335,-0.784 -0.5,-1.334 -0.165,-0.55 -0.352,-1.037 -0.416,-1.083 -0.064,-0.046 -0.287,-0.608 -0.496,-1.25 -0.21,-0.642 -0.436,-1.242 -0.503,-1.333 -0.067,-0.092 -0.251,-0.561 -0.408,-1.042 L 264.307,90.5 h -1.807 -1.807 l -0.282,0.875 m 11.591,-0.75 c 10e-4,0.069 -0.012,2.9 -0.028,6.292 -0.038,7.674 0.145,8.609 1.989,10.161 3.337,2.808 10.323,1.828 11.726,-1.645 0.115,-0.284 0.26,-0.554 0.322,-0.6 0.367,-0.27 0.489,-2.281 0.489,-8.091 V 90.5 h -1.667 -1.666 v 5.923 c 0,8.528 -0.323,9.286 -3.941,9.26 -3.657,-0.027 -3.893,-0.575 -3.893,-9.043 V 90.5 h -1.666 c -0.917,0 -1.666,0.056 -1.665,0.125 M 304.333,92 v 1.5 h 2.75 2.75 l 0.003,7.208 c 10e-4,3.965 0.064,7.305 0.139,7.424 0.099,0.156 0.562,0.201 1.706,0.166 l 1.569,-0.048 0.043,-7.375 0.044,-7.375 h 2.748 2.748 V 92 90.5 h -7.25 -7.25 V 92 m 16.546,7.375 0.038,8.875 h 1.666 1.667 l 0.045,-3.625 0.045,-3.625 h 2.497 c 1.553,0 2.496,0.063 2.496,0.167 0,0.091 0.154,0.166 0.342,0.166 1.435,0 1.766,0.783 2.221,5.25 0.037,0.367 0.158,0.911 0.269,1.209 l 0.201,0.541 h 1.656 c 1.735,0 2.121,-0.176 1.644,-0.75 -0.112,-0.136 -0.303,-1.054 -0.424,-2.04 -0.515,-4.193 -0.921,-5.229 -2.256,-5.757 -0.191,-0.075 -0.187,-0.096 0.021,-0.106 0.395,-0.02 1.562,-1.342 1.922,-2.175 0.932,-2.159 -0.104,-5.411 -1.971,-6.188 -0.252,-0.105 -0.458,-0.246 -0.458,-0.314 0,-0.339 -2.213,-0.503 -6.774,-0.503 h -4.884 l 0.037,8.875 m 23.399,-8.764 c -0.061,0.061 -0.111,0.249 -0.111,0.417 0,0.168 -0.088,0.305 -0.195,0.305 -0.107,0 -0.145,0.05 -0.085,0.11 0.061,0.06 0.046,0.192 -0.033,0.292 -0.079,0.1 -0.313,0.707 -0.521,1.348 -0.207,0.642 -0.433,1.242 -0.501,1.334 -0.116,0.155 -0.427,0.982 -1.442,3.831 -0.228,0.64 -0.466,1.203 -0.528,1.25 -0.061,0.047 -0.325,0.685 -0.585,1.419 -0.966,2.718 -1.231,3.41 -1.387,3.619 -0.088,0.118 -0.294,0.664 -0.459,1.214 -0.164,0.55 -0.428,1.225 -0.586,1.5 -0.517,0.902 -0.414,0.995 1.155,1.049 2.053,0.071 2.079,0.058 2.496,-1.257 0.197,-0.619 0.458,-1.313 0.581,-1.542 0.123,-0.229 0.309,-0.737 0.414,-1.128 l 0.19,-0.712 3.335,0.045 3.335,0.045 0.409,1 c 0.226,0.55 0.49,1.291 0.587,1.646 0.097,0.355 0.259,0.842 0.359,1.083 0.101,0.241 0.189,0.513 0.197,0.604 0.008,0.097 0.766,0.187 1.805,0.214 2.048,0.054 2.117,-0.01 1.469,-1.369 -0.177,-0.373 -0.484,-1.165 -0.681,-1.761 -0.198,-0.596 -0.415,-1.159 -0.483,-1.25 -0.069,-0.092 -0.297,-0.692 -0.508,-1.334 -0.21,-0.641 -0.431,-1.204 -0.49,-1.25 -0.059,-0.046 -0.244,-0.533 -0.41,-1.083 -0.167,-0.55 -0.44,-1.3 -0.607,-1.667 -0.49,-1.073 -1.665,-4.219 -1.665,-4.457 0,-0.12 -0.101,-0.366 -0.226,-0.547 -0.124,-0.181 -0.398,-0.852 -0.609,-1.492 -0.211,-0.64 -0.479,-1.259 -0.596,-1.375 -0.224,-0.224 -3.412,-0.313 -3.624,-0.101 m 12.222,8.806 v 8.916 h 6.083 6.084 v -1.5 -1.5 h -4.417 -4.417 V 97.917 90.5 h -1.666 -1.667 v 8.917 m 14.325,-8.853 c -0.041,0.041 -0.038,4.037 0.008,8.88 l 0.084,8.806 h 1.666 1.667 v -8.833 -8.834 l -1.675,-0.047 c -0.921,-0.026 -1.709,-0.013 -1.75,0.028 m 11.761,0.54 c -0.139,0.332 -0.253,0.689 -0.253,0.794 0,0.105 -0.14,0.452 -0.312,0.773 -0.172,0.32 -0.448,1.032 -0.615,1.581 -0.167,0.549 -0.379,1.099 -0.472,1.223 -0.093,0.124 -0.371,0.799 -0.618,1.5 -0.887,2.52 -1.359,3.778 -1.481,3.942 -0.068,0.091 -0.255,0.579 -0.415,1.083 -0.16,0.504 -0.384,1.067 -0.497,1.25 -0.112,0.183 -0.376,0.858 -0.586,1.5 -0.21,0.642 -0.436,1.242 -0.502,1.333 -0.167,0.23 -0.668,1.758 -0.668,2.036 0,0.179 0.356,0.216 1.702,0.178 l 1.703,-0.047 0.162,-0.583 c 0.089,-0.321 0.212,-0.621 0.273,-0.667 0.061,-0.046 0.244,-0.496 0.406,-1 0.163,-0.504 0.439,-1.235 0.612,-1.625 l 0.317,-0.708 h 3.318 c 3.017,0 3.325,0.026 3.401,0.291 0.624,2.17 0.828,2.805 0.924,2.875 0.063,0.046 0.208,0.402 0.321,0.792 l 0.207,0.708 h 1.749 c 1.704,0 2.393,-0.247 1.787,-0.641 -0.092,-0.06 -0.299,-0.521 -0.46,-1.025 -0.161,-0.505 -0.384,-1.067 -0.494,-1.25 -0.11,-0.184 -0.336,-0.784 -0.501,-1.334 -0.165,-0.55 -0.392,-1.15 -0.505,-1.333 -0.112,-0.183 -0.376,-0.858 -0.585,-1.5 -0.21,-0.642 -0.437,-1.242 -0.504,-1.333 -0.067,-0.092 -0.253,-0.58 -0.413,-1.084 -0.161,-0.504 -0.382,-1.066 -0.492,-1.25 -0.11,-0.183 -0.336,-0.783 -0.501,-1.333 -0.165,-0.55 -0.392,-1.15 -0.505,-1.333 -0.112,-0.184 -0.377,-0.859 -0.588,-1.5 -0.211,-0.642 -0.434,-1.205 -0.496,-1.25 -0.062,-0.046 -0.211,-0.44 -0.331,-0.875 L 386.457,90.5 h -1.81 -1.809 l -0.252,0.604 m -51.961,2.649 c 1.56,0.624 1.624,3.32 0.102,4.261 -0.6,0.372 -0.837,0.402 -3.519,0.461 l -2.875,0.063 V 96.019 93.5 h 2.83 c 2.141,0 2.984,0.062 3.462,0.253 m 16.365,3.414 c 0.444,1.067 0.872,2.305 0.841,2.435 -0.014,0.061 0.044,0.157 0.129,0.213 0.085,0.056 0.206,0.308 0.268,0.56 l 0.112,0.458 h -2.314 -2.313 l 0.08,-0.416 c 0.043,-0.229 0.134,-0.417 0.2,-0.417 0.067,0 0.258,-0.469 0.426,-1.042 0.169,-0.573 0.437,-1.308 0.597,-1.635 0.161,-0.326 0.417,-1.075 0.57,-1.665 0.391,-1.511 0.444,-1.533 0.786,-0.321 0.168,0.594 0.446,1.417 0.618,1.83 M 385,95.583 c 0.079,0.184 0.27,0.746 0.425,1.25 0.155,0.504 0.384,1.142 0.508,1.417 0.125,0.275 0.369,0.95 0.542,1.5 l 0.315,1 -2.168,0.047 c -1.192,0.025 -2.197,0.017 -2.234,-0.02 -0.079,-0.079 0.369,-1.488 0.696,-2.194 0.128,-0.275 0.363,-0.95 0.521,-1.5 0.159,-0.55 0.381,-1.15 0.492,-1.333 0.112,-0.183 0.26,-0.596 0.328,-0.917 l 0.125,-0.583 0.154,0.5 c 0.084,0.275 0.218,0.65 0.296,0.833 m -122.174,0.125 c 0.004,0.161 0.069,0.292 0.145,0.292 0.076,0 0.223,0.365 0.325,0.81 0.103,0.446 0.37,1.215 0.593,1.709 0.223,0.494 0.457,1.085 0.521,1.314 0.064,0.23 0.153,0.548 0.198,0.709 0.074,0.267 -0.107,0.291 -2.18,0.291 -1.244,0 -2.261,-0.025 -2.261,-0.057 0,-0.135 0.693,-2.07 0.905,-2.526 0.128,-0.275 0.358,-0.935 0.511,-1.467 0.153,-0.532 0.385,-1.169 0.514,-1.417 0.129,-0.247 0.241,-0.562 0.249,-0.699 0.019,-0.323 0.47,0.656 0.48,1.041"
       id="path9" />
  </g>
</svg>
